<svg width="20" height="21" viewBox="0 0 20 21" fill="none" xmlns="http://www.w3.org/2000/svg">
<g clip-path="url(#clip0_6_144)">
<path d="M15 13C16.0416 13 16.9271 13.3646 17.6562 14.0938C18.3854 14.8229 18.75 15.7084 18.75 16.75C18.75 17.7916 18.3854 18.6771 17.6562 19.4062C16.9271 20.1354 16.0416 20.5 15 20.5C13.9584 20.5 13.0729 20.1354 12.3438 19.4062C11.6146 18.6771 11.25 17.7916 11.25 16.75C11.25 16.3594 11.3021 15.9817 11.4062 15.6172L7.57812 13.2344C6.84896 13.9115 5.98959 14.25 5 14.25C3.95834 14.25 3.07291 13.8854 2.34375 13.1562C1.61458 12.4271 1.25 11.5417 1.25 10.5C1.25 9.45834 1.61458 8.57291 2.34375 7.84375C3.07291 7.11459 3.95834 6.75 5 6.75C5.98959 6.75 6.84896 7.08854 7.57812 7.76562L11.4062 5.38281C11.3021 5.01823 11.25 4.64062 11.25 4.25C11.25 3.20834 11.6146 2.32291 12.3438 1.59375C13.0729 0.864584 13.9584 0.5 15 0.5C16.0416 0.5 16.9271 0.864584 17.6562 1.59375C18.3854 2.32291 18.75 3.20834 18.75 4.25C18.75 5.29166 18.3854 6.17709 17.6562 6.90625C16.9271 7.63541 16.0416 8 15 8C14.0104 8 13.151 7.66146 12.4219 6.98438L8.59375 9.36719C8.82812 10.1224 8.82812 10.8776 8.59375 11.6328L12.4219 14.0156C13.151 13.3385 14.0104 13 15 13ZM16.3281 2.92188C15.9635 2.55729 15.5209 2.375 15 2.375C14.4791 2.375 14.0365 2.55729 13.6719 2.92188C13.3073 3.28646 13.125 3.72916 13.125 4.25C13.125 4.77084 13.3073 5.21354 13.6719 5.57812C14.0365 5.94271 14.4791 6.125 15 6.125C15.5209 6.125 15.9635 5.94271 16.3281 5.57812C16.6927 5.21354 16.875 4.77084 16.875 4.25C16.875 3.72916 16.6927 3.28646 16.3281 2.92188ZM3.67188 11.8281C4.03646 12.1927 4.47916 12.375 5 12.375C5.52084 12.375 5.96354 12.1927 6.32812 11.8281C6.69271 11.4635 6.875 11.0208 6.875 10.5C6.875 9.97916 6.69271 9.53646 6.32812 9.17188C5.96354 8.80729 5.52084 8.625 5 8.625C4.47916 8.625 4.03646 8.80729 3.67188 9.17188C3.30729 9.53646 3.125 9.97916 3.125 10.5C3.125 11.0208 3.30729 11.4635 3.67188 11.8281ZM13.6719 18.0781C14.0365 18.4428 14.4791 18.625 15 18.625C15.5209 18.625 15.9635 18.4428 16.3281 18.0781C16.6927 17.7135 16.875 17.2709 16.875 16.75C16.875 16.2291 16.6927 15.7865 16.3281 15.4219C15.9635 15.0573 15.5209 14.875 15 14.875C14.4791 14.875 14.0365 15.0573 13.6719 15.4219C13.3073 15.7865 13.125 16.2291 13.125 16.75C13.125 17.2709 13.3073 17.7135 13.6719 18.0781Z" fill="black"/>
</g>
<defs>
<clipPath id="clip0_6_144">
<rect width="20" height="20" fill="white" transform="translate(0 0.5)"/>
</clipPath>
</defs>
</svg>
